<?xml version="1.0" standalone="no"?>
<!DOCTYPE svg PUBLIC "-//W3C//DTD SVG 20010904//EN"
 "http://www.w3.org/TR/2001/REC-SVG-20010904/DTD/svg10.dtd">
<svg version="1.0" xmlns="http://www.w3.org/2000/svg"
 width="50.000000pt" height="50.000000pt" viewBox="0 0 50.000000 50.000000"
 preserveAspectRatio="xMidYMid meet">

<g transform="translate(0.000000,50.000000) scale(0.100000,-0.100000)"
fill="#E52222" stroke="none">
<path d="M272 448 c-19 -19 -14 -42 13 -68 l26 -24 -83 -83 -82 -83 -26 25
c-30 29 -52 32 -71 9 -10 -12 -10 -20 -1 -35 10 -15 9 -23 0 -39 -9 -15 -10
-22 -1 -31 9 -9 9 -16 0 -30 -17 -27 15 -59 42 -42 14 9 21 9 30 0 9 -9 16 -8
31 1 16 9 24 10 39 0 15 -9 23 -9 35 1 23 19 20 44 -9 71 l-26 24 83 83 82 83
26 -25 c30 -29 52 -32 71 -9 10 12 10 20 1 35 -10 15 -9 23 0 39 9 15 10 22 1
31 -9 9 -9 16 0 30 17 27 -15 59 -42 42 -14 -9 -21 -9 -30 0 -9 9 -17 8 -32
-2 -15 -9 -24 -10 -32 -2 -14 14 -30 14 -45 -1z m158 -162 c-14 -14 -156 127
-145 144 5 8 31 -12 81 -61 50 -49 70 -77 64 -83z m0 70 c-14 -14 -85 57 -75
74 5 8 19 0 46 -26 26 -26 36 -41 29 -48z m10 76 c0 -13 -12 -22 -22 -16 -10
6 -1 24 13 24 5 0 9 -4 9 -8z m-181 -188 c-45 -46 -87 -80 -92 -77 -5 3 28 43
74 89 45 46 87 80 92 77 5 -3 -28 -43 -74 -89z m-105 -93 c43 -43 66 -73 61
-81 -5 -8 -32 12 -81 61 -64 64 -80 89 -56 89 4 0 38 -31 76 -69z m-35 -35
c48 -50 30 -68 -20 -20 -34 33 -42 54 -20 54 4 0 22 -15 40 -34z m-38 -49
c-13 -13 -26 -3 -16 12 3 6 11 8 17 5 6 -4 6 -10 -1 -17z"/>
</g>
</svg>
