<?xml version="1.0" standalone="no"?>
<!DOCTYPE svg PUBLIC "-//W3C//DTD SVG 20010904//EN"
 "http://www.w3.org/TR/2001/REC-SVG-20010904/DTD/svg10.dtd">
<svg version="1.0" xmlns="http://www.w3.org/2000/svg"
 width="50.000000pt" height="50.000000pt" viewBox="0 0 50.000000 50.000000"
 preserveAspectRatio="xMidYMid meet">

<g transform="translate(0.000000,50.000000) scale(0.100000,-0.100000)"
fill="#E52222" stroke="none">
<path d="M134 489 c-3 -6 -15 -8 -26 -6 -23 6 -108 -67 -108 -93 0 -48 56 -52
96 -7 16 19 36 36 44 39 13 4 13 7 1 22 -13 15 -13 19 0 27 35 22 56 0 45 -47
-4 -15 -40 -58 -81 -97 -76 -71 -105 -121 -105 -178 0 -47 28 -96 69 -121 33
-21 48 -23 181 -23 133 0 148 2 181 23 41 25 69 74 69 121 0 57 -29 107 -105
178 -41 39 -77 82 -81 97 -11 47 10 69 45 47 13 -8 13 -12 0 -27 -12 -15 -12
-18 1 -22 8 -3 28 -20 44 -39 40 -45 96 -41 96 7 0 26 -85 99 -108 93 -11 -2
-23 0 -26 6 -9 15 -49 14 -64 -1 -34 -34 -7 -90 83 -178 37 -36 73 -79 81 -97
32 -73 8 -143 -59 -174 -36 -16 -117 -27 -117 -15 0 2 13 18 30 36 55 59 49
143 -14 181 -39 24 -73 24 -112 0 -63 -38 -69 -122 -14 -181 17 -18 30 -34 30
-36 0 -12 -81 -1 -117 15 -64 30 -89 97 -62 168 6 15 46 64 89 109 82 84 100
119 81 160 -11 25 -54 34 -67 13z m-40 -76 c-13 -14 -24 -30 -24 -34 0 -13
-38 -11 -46 3 -11 17 67 80 82 67 9 -7 6 -17 -12 -36z m383 -27 c-8 -24 -42
-17 -60 14 -10 16 -23 30 -29 30 -7 0 -6 5 2 15 11 13 18 11 52 -16 21 -17 37
-36 35 -43z m-166 -175 c18 -19 29 -40 29 -58 0 -36 -30 -84 -63 -102 -23 -12
-31 -12 -54 0 -33 18 -63 66 -63 102 0 40 49 87 90 87 22 0 41 -9 61 -29z"/>
</g>
</svg>
