<?xml version="1.0" standalone="no"?>
<!DOCTYPE svg PUBLIC "-//W3C//DTD SVG 20010904//EN"
 "http://www.w3.org/TR/2001/REC-SVG-20010904/DTD/svg10.dtd">
<svg version="1.0" xmlns="http://www.w3.org/2000/svg"
 width="66.000000pt" height="66.000000pt" viewBox="0 0 66.000000 66.000000"
 preserveAspectRatio="xMidYMid meet">

<g transform="translate(0.000000,66.000000) scale(0.100000,-0.100000)"
fill="#E52222" stroke="none">
<path d="M365 629 c-90 -22 -249 -231 -309 -409 -23 -67 -24 -76 -11 -97 24
-37 56 -52 151 -73 114 -25 196 -25 276 0 34 11 75 20 90 20 36 0 58 10 58 24
0 15 -83 5 -146 -18 -77 -28 -133 -29 -243 -7 -107 23 -158 42 -167 66 -10 24
54 184 102 257 81 121 150 196 192 208 60 16 71 13 87 -26 21 -50 19 -63 -11
-76 -19 -9 -33 -9 -56 0 -25 9 -35 9 -46 -1 -30 -24 -52 -91 -52 -159 0 -60
-3 -71 -30 -101 -16 -19 -30 -37 -30 -41 0 -16 24 -1 71 44 48 46 120 82 135
67 4 -3 -3 -18 -15 -33 -33 -42 -27 -80 19 -126 23 -24 44 -37 51 -32 8 5 2
15 -18 33 -46 38 -57 66 -41 98 18 37 102 99 155 113 23 7 43 17 43 21 0 18
-50 8 -105 -21 -37 -19 -72 -30 -99 -30 -23 0 -59 -9 -80 -21 l-38 -20 7 63
c4 35 14 77 22 95 14 31 17 32 59 26 48 -6 88 8 99 34 13 36 -43 137 -74 132
-3 -1 -24 -5 -46 -10z"/>
<path d="M376 581 c-16 -3 -31 -12 -34 -20 -4 -11 3 -13 29 -7 35 7 56 21 42
28 -4 2 -21 2 -37 -1z"/>
<path d="M170 355 c-43 -62 -64 -115 -51 -128 6 -6 15 3 26 29 9 21 29 59 45
85 32 49 35 59 20 59 -5 0 -23 -20 -40 -45z"/>
<path d="M230 99 c0 -7 21 -13 90 -24 37 -6 98 7 90 19 -7 9 -180 15 -180 5z"/>
</g>
</svg>
