<?xml version="1.0" standalone="no"?>
<!DOCTYPE svg PUBLIC "-//W3C//DTD SVG 20010904//EN"
 "http://www.w3.org/TR/2001/REC-SVG-20010904/DTD/svg10.dtd">
<svg version="1.0" xmlns="http://www.w3.org/2000/svg"
 width="50.000000pt" height="50.000000pt" viewBox="0 0 50.000000 50.000000"
 preserveAspectRatio="xMidYMid meet">

<g transform="translate(0.000000,50.000000) scale(0.100000,-0.100000)"
fill="#E52222" stroke="none">
<path d="M305 430 c-4 -6 -11 -7 -17 -4 -5 4 -28 1 -49 -6 -31 -11 -41 -11
-54 0 -16 13 -65 6 -65 -10 0 -6 -9 -10 -20 -10 -11 0 -25 -9 -32 -20 -7 -11
-21 -20 -32 -20 -15 0 -17 -5 -12 -34 4 -22 2 -37 -5 -41 -29 -18 28 -165 79
-206 21 -16 42 -19 146 -19 77 0 130 5 146 13 53 27 118 178 91 211 -6 8 -8
27 -5 46 8 35 -5 50 -43 50 -12 0 -23 3 -25 8 -6 13 -67 52 -82 52 -8 0 -18
-5 -21 -10z m42 -24 c4 -8 17 -16 28 -18 16 -4 13 -7 -16 -20 -20 -9 -40 -21
-43 -27 -15 -23 -52 3 -62 44 -7 27 -6 28 24 22 17 -4 34 -2 37 3 9 14 23 12
32 -4z m-171 -5 c5 -5 20 -11 33 -13 30 -4 41 -28 13 -28 -11 0 -30 -8 -43
-19 -21 -17 -25 -17 -61 -2 -40 17 -45 33 -12 40 10 2 23 9 27 17 9 16 29 18
43 5z m279 -51 c3 -5 3 -21 -1 -35 -5 -20 -12 -25 -38 -25 -29 1 -30 1 -12 15
11 8 16 18 13 22 -4 3 -21 -3 -37 -15 -29 -22 -70 -30 -70 -14 0 11 41 48 60
55 25 9 78 8 85 -3z m-326 -37 c23 -15 24 -18 8 -21 -10 -2 -26 3 -36 12 -22
20 -35 20 -27 0 4 -9 1 -14 -6 -12 -6 2 -15 14 -20 27 -8 22 -7 23 24 17 17
-3 43 -14 57 -23z m144 5 l22 -23 -32 -3 c-18 -2 -48 -2 -65 0 l-33 3 23 23
c12 12 31 22 42 22 11 0 30 -10 43 -22z m195 -70 l-3 -23 -215 0 -215 0 -3 23
-3 22 221 0 221 0 -3 -22z m-30 -89 c-41 -73 -55 -79 -188 -79 -133 0 -147 6
-188 79 l-23 41 211 0 211 0 -23 -41z"/>
</g>
</svg>
